<svg xmlns="http://www.w3.org/2000/svg" xmlns:svg="http://www.w3.org/2000/svg" id="Layer_1" width="66.7" height="28.6" version="1.1" viewBox="0 0 66.7 28.6"><metadata id="metadata3693"/><style id="style3680">.st0{fill:#ea881f}</style><title id="title3682">logo</title><circle id="circle3684" cx="4.8" cy="23.8" r="4.8" class="st0" style="fill:#ea881f"/><path id="path3686" d="m 62,0 c -2.6,0 -4.8,2.1 -4.8,4.8 0,3.8 -0.6,4.8 -4.8,4.8 H 52 c -2.4,0.2 -4.3,2.2 -4.3,4.7 v 0.1 c 0,3.7 -0.7,4.6 -4.8,4.6 -0.2,0 -0.4,0 -0.5,0.1 -2.4,0.3 -4.3,2.3 -4.3,4.7 0,2.6 2.1,4.8 4.8,4.8 2.5,0 4.6,-2 4.7,-4.4 v -0.4 c 0,-3.4 1.1,-4.7 4.7,-4.8 h 0.1 c 2.5,0 4.6,-2 4.7,-4.5 v -0.3 c 0,-3.5 1.1,-4.8 4.8,-4.8 2.6,0 4.8,-2.1 4.8,-4.8 C 66.7,2.1 64.6,0 62,0 Z M 33.8,9.6 H 33.4 C 29.2,9.6 28.6,8.6 28.6,4.8 28.6,2.2 26.5,0 23.8,0 21.2,0 19,2.1 19,4.8 19,8.6 18.4,9.5 14.2,9.5 h -0.4 c -2.4,0.2 -4.3,2.2 -4.3,4.7 0,2.6 2.1,4.8 4.8,4.8 2.5,0 4.6,-2 4.7,-4.4 v -0.3 c 0,-3.5 1.1,-4.8 4.8,-4.8 3.7,0 4.8,1.3 4.8,4.7 0,2.6 2.1,4.8 4.8,4.8 2.7,0 4.8,-2.1 4.8,-4.8 -0.1,-2.4 -2,-4.4 -4.4,-4.6 z" class="st0" style="fill:#ea881f"/></svg>